# xmcd
#
# Track frame offsets:
#      150
#      13555
#      33147
# 
# Disc length: 645 seconds
#
# Revision: 4
# Processed by: cddbd v1.4PL0 Copyright (c) Steve Scherf et al.
#
# Submitted via: FreeRIP 1.21
#
DISCID=14028303
DTITLE=Nashville City - Getting closer
DYEAR=1900
DGENRE=country
TTITLE0=Living in the same house
TTITLE1=Country lady
TTITLE2=Ocean of love
EXTD=
EXTT0=
EXTT1=
EXTT2=
PLAYORDER=
